<?xml version="1.0" encoding="utf-8"?>
<!-- Generator: Adobe Illustrator 21.1.0, SVG Export Plug-In . SVG Version: 6.00 Build 0)  -->
<svg version="1.1" id="Layer_4" xmlns="http://www.w3.org/2000/svg" xmlns:xlink="http://www.w3.org/1999/xlink" x="0px" y="0px"
	 viewBox="0 0 500 500" style="enable-background:new 0 0 500 500;" xml:space="preserve">
<style type="text/css">
	.st0{fill:none;stroke:#020202;stroke-miterlimit:10;}
	.st1{font-family:'MyriadPro-Regular';}
	.st2{font-size:21px;}
	.st3{fill:none;stroke:#000000;stroke-miterlimit:10;}
</style>
<line class="st0" x1="46.9" y1="139.4" x2="146.1" y2="102.3"/>
<line class="st0" x1="437.7" y1="137.4" x2="356.6" y2="106.6"/>
<line class="st0" x1="88.9" y1="123.7" x2="95.6" y2="339.2"/>
<line class="st0" x1="406.9" y1="125.7" x2="406.9" y2="339.2"/>
<path class="st0" d="M95.6,339.2c1.5,8,5.2,21.5,15,35.4c7.2,10.1,15.2,16.8,21,21"/>
<path class="st0" d="M356.6,398.6c5-0.7,21.2-3.8,34.5-18c15.7-16.8,15.9-37,15.8-41.4"/>
<path class="st0" d="M131.6,395.6c28.8,8.2,68.8,16.4,117,16.5c43.8,0.1,80.6-6.5,108-13.5"/>
<line class="st0" x1="250" y1="148.1" x2="185.6" y2="89.2"/>
<line class="st0" x1="322.1" y1="89.2" x2="250" y2="148.1"/>
<path class="st0" d="M322.1,89.2c4.6-0.3,11.9-0.2,19.8,2.4c6.8,2.1,11.5,5.2,14.4,7.6"/>
<path class="st0" d="M250,148.1c4.7,5.3,12.4,15.5,16.5,30.4c2.8,10.1,2.9,18.9,2.5,25c5.2-3,12.9-7.7,22.2-13.7
	c27.9-18.3,41.8-27.4,51.3-41.3c5.3-7.8,13.7-23.5,13.8-49.3"/>
<path class="st0" d="M215.5,201.8c5.4-8.5,10.9-16.9,16.3-25.4c6.1-9.4,12.1-18.9,18.2-28.3"/>
<path class="st0" d="M144.1,98c6.4,15.2,15.3,33.1,27.9,52c14.7,22.1,30.3,39.2,43.5,51.8"/>
<path class="st0" d="M185.6,89.2c-4.3-1-12.1-2.2-21.5-0.2c-9.6,2-16.4,6.3-20,9"/>
<path class="st0" d="M266.5,178.2c-2.2,1.8-8.4,6.5-17.4,6.7c-9.6,0.2-16.4-4.7-18.6-6.4"/>
<line class="st0" x1="256.5" y1="412.1" x2="258.3" y2="183.9"/>
<line class="st0" x1="236" y1="412.1" x2="239.4" y2="183.2"/>
<text transform="matrix(1 0 0 1 179.7964 462)" class="st1 st2">Front With Piecing</text>
<path class="st3" d="M242.2,244.2c1.7-4.2,10.7-4.1,12.4,0c0.9,2.1-0.3,4.9-1.4,6.5c-2.1,2.8-6,3.6-8.6,1.2
	C242.5,250,241.3,246.5,242.2,244.2z"/>
<path class="st3" d="M242.2,358.3c1.7-4.2,10.7-4.1,12.4,0c0.9,2.1-0.3,4.9-1.4,6.5c-2.1,2.8-6,3.6-8.6,1.2
	C242.5,364.1,241.3,360.6,242.2,358.3z"/>
<path class="st3" d="M242.2,169.1c1.7-4.2,10.7-4.1,12.4,0c0.9,2.1-0.3,4.9-1.4,6.5c-2.1,2.8-6,3.6-8.6,1.2
	C242.5,174.9,241.3,171.4,242.2,169.1z"/>
</svg>
