<?xml version="1.0" encoding="utf-8"?>
<!-- Generator: Adobe Illustrator 21.1.0, SVG Export Plug-In . SVG Version: 6.00 Build 0)  -->
<svg version="1.1" id="Layer_4" xmlns="http://www.w3.org/2000/svg" xmlns:xlink="http://www.w3.org/1999/xlink" x="0px" y="0px"
	 viewBox="0 0 500 500" style="enable-background:new 0 0 500 500;" xml:space="preserve">
<style type="text/css">
	.st0{fill:none;stroke:#000000;stroke-miterlimit:10;}
	.st1{font-family:'MyriadPro-Regular';}
	.st2{font-size:21px;}
</style>
<line class="st0" x1="95.6" y1="172.1" x2="104.6" y2="350.6"/>
<path class="st0" d="M401.6,355.1c-18.6,12.7-71.7,45.5-147,45c-77.9-0.5-132-36.4-150-49.5"/>
<line class="st0" x1="407.6" y1="167.6" x2="401.6" y2="355.1"/>
<path class="st0" d="M380.6,64.1c-2.3,5.7-17,43.5,3,78c7.3,12.5,16.8,20.6,24,25.5"/>
<line class="st0" x1="313.1" y1="45" x2="380.6" y2="64.1"/>
<path class="st0" d="M196.1,45c6.2,4.9,26.7,20.1,57,20.6c32.2,0.5,54.1-15.9,60-20.6"/>
<line class="st0" x1="125.6" y1="70.1" x2="196.1" y2="45"/>
<path class="st0" d="M95.6,172.1c5.9-3.7,24.1-16.1,33-40.5c11-30.2-0.6-56.3-3-61.5"/>
<line class="st0" x1="97.3" y1="205.1" x2="407.6" y2="209.6"/>
<text transform="matrix(1 0 0 1 212.5923 452.5799)" class="st1 st2">Horvizontal</text>
</svg>
