<?xml version="1.0" encoding="utf-8"?>
<!-- Generator: Adobe Illustrator 21.1.0, SVG Export Plug-In . SVG Version: 6.00 Build 0)  -->
<svg version="1.1" xmlns="http://www.w3.org/2000/svg" xmlns:xlink="http://www.w3.org/1999/xlink" x="0px" y="0px"
	 viewBox="0 0 500 500" style="enable-background:new 0 0 500 500;" xml:space="preserve">
<style type="text/css">
	.st0{fill:none;stroke:#000000;stroke-miterlimit:10;}
	.st1{font-family:'MyriadPro-Regular';}
	.st2{font-size:21px;}
	.st3{stroke:#827A7C;stroke-miterlimit:10;}
	.st4{fill:#FFFFFF;stroke:#000000;stroke-miterlimit:10;}
</style>
<g id="Layer_1">
	<line class="st0" x1="102.8" y1="119.6" x2="57.7" y2="265.3"/>
	<line class="st0" x1="123.1" y1="119.6" x2="69" y2="292.4"/>
	<line class="st0" x1="54" y1="256.5" x2="95.3" y2="355.5"/>
	<line class="st0" x1="396.3" y1="354.3" x2="95.3" y2="355.5"/>
	<line class="st0" x1="441" y1="263.9" x2="396.3" y2="354.3"/>
	<line class="st0" x1="385.7" y1="119.6" x2="435.9" y2="274.2"/>
	<line class="st0" x1="367" y1="119.6" x2="423.6" y2="299.1"/>
	<text transform="matrix(1 0 0 1 205.2521 417.5423)" class="st1 st2">Kangaroo</text>
	<line class="st3" x1="245.8" y1="94.8" x2="245.8" y2="380.9"/>
	<line class="st3" x1="258.9" y1="94.8" x2="258.9" y2="380.9"/>
	<line class="st3" x1="231.3" y1="94.8" x2="231.3" y2="380.9"/>
	<line class="st3" x1="238.3" y1="94.8" x2="238.3" y2="380.9"/>
	<line class="st3" x1="252.5" y1="94.8" x2="252.5" y2="380.9"/>
</g>
<g id="Layer_2">
	<path class="st4" d="M81,119.6c21.8,0,43.6,0,65.4,0c87.4,0,174.8,0,262.3,0"/>
</g>
</svg>
