<?xml version="1.0" encoding="utf-8"?>
<!-- Generator: Adobe Illustrator 21.1.0, SVG Export Plug-In . SVG Version: 6.00 Build 0)  -->
<svg version="1.1" id="Layer_4" xmlns="http://www.w3.org/2000/svg" xmlns:xlink="http://www.w3.org/1999/xlink" x="0px" y="0px"
	 viewBox="0 0 500 500" style="enable-background:new 0 0 500 500;" xml:space="preserve">
<style type="text/css">
	.st0{fill:none;stroke:#000000;stroke-miterlimit:10;}
	.st1{font-family:'MyriadPro-Regular';}
	.st2{font-size:21px;}
</style>
<line class="st0" x1="274" y1="22" x2="273" y2="250"/>
<line class="st0" x1="243" y1="22" x2="243" y2="38.5"/>
<line class="st0" x1="243" y1="45.7" x2="243" y2="58.7"/>
<line class="st0" x1="243" y1="78.3" x2="243" y2="65.3"/>
<line class="st0" x1="243" y1="97.7" x2="243" y2="85.7"/>
<line class="st0" x1="243" y1="169" x2="243" y2="158.3"/>
<line class="st0" x1="243" y1="136" x2="243" y2="124"/>
<path class="st0" d="M82,281c31.8-12.8,94.1-33,174-27c76.7,5.8,133.5,33.1,163,50"/>
<line class="st0" x1="82" y1="299" x2="93.1" y2="294.3"/>
<line class="st0" x1="97.3" y1="293" x2="108.7" y2="288.5"/>
<line class="st0" x1="113.2" y1="286.2" x2="127.4" y2="281.5"/>
<line class="st0" x1="145.3" y1="276.7" x2="132" y2="280.3"/>
<line class="st0" x1="164.7" y1="271" x2="149" y2="275.3"/>
<line class="st0" x1="183.4" y1="266.1" x2="170.3" y2="269.2"/>
<line class="st0" x1="203" y1="263.2" x2="189.5" y2="265.7"/>
<line class="st0" x1="312.7" y1="275" x2="296.9" y2="270.2"/>
<line class="st0" x1="366.5" y1="292.8" x2="357.2" y2="288.7"/>
<line class="st0" x1="397.7" y1="308.1" x2="388" y2="302.7"/>
<path class="st0" d="M82,329c28-13.3,86.4-36.4,163-33c70.5,3.1,123.1,27.3,150,42"/>
<line class="st0" x1="243" y1="225.3" x2="243" y2="213.3"/>
<line class="st0" x1="243" y1="209.7" x2="243" y2="197.7"/>
<line class="st0" x1="243" y1="189.7" x2="243" y2="177.7"/>
<line class="st0" x1="243" y1="154" x2="243" y2="142"/>
<line class="st0" x1="243" y1="115.3" x2="243" y2="103.3"/>
<line class="st0" x1="243" y1="243" x2="243" y2="231"/>
<line class="st0" x1="331" y1="279.5" x2="317.3" y2="274.9"/>
<line class="st0" x1="294.7" y1="269.3" x2="283.2" y2="265.7"/>
<line class="st0" x1="278.3" y1="264.7" x2="264.2" y2="263.3"/>
<line class="st0" x1="258.3" y1="263.3" x2="246.2" y2="263.3"/>
<line class="st0" x1="240" y1="263.3" x2="228.3" y2="263"/>
<line class="st0" x1="222" y1="263.3" x2="208.3" y2="263.2"/>
<line class="st0" x1="384.7" y1="300.3" x2="374" y2="295.7"/>
<line class="st0" x1="350" y1="287.1" x2="336.4" y2="282.5"/>
<line class="st0" x1="411.2" y1="315.8" x2="401.5" y2="310.3"/>
<text transform="matrix(1 0 0 1 250 402.8994)" class="st1 st2">SNTS</text>
</svg>
