<?xml version="1.0" encoding="utf-8"?>
<!-- Generator: Adobe Illustrator 21.1.0, SVG Export Plug-In . SVG Version: 6.00 Build 0)  -->
<svg version="1.1" id="Layer_4" xmlns="http://www.w3.org/2000/svg" xmlns:xlink="http://www.w3.org/1999/xlink" x="0px" y="0px"
	 viewBox="0 0 500 500" style="enable-background:new 0 0 500 500;" xml:space="preserve">
<style type="text/css">
	.st0{fill:none;stroke:#000000;stroke-miterlimit:10;}
	.st1{font-family:'MyriadPro-Regular';}
	.st2{font-size:21px;}
</style>
<path class="st0" d="M51.6,47.6c20,1.6,49.1,1.7,82.9-6.5c29.6-7.2,52.9-18.3,69.1-27.6c-4.4,13.3-12.2,29.9-26,45.5
	C133,109.4,63.7,106,52.4,105.3"/>
<line class="st0" x1="68.7" y1="105.6" x2="68.7" y2="363"/>
<line class="st0" x1="153.1" y1="80.3" x2="410.1" y2="120"/>
<path class="st0" d="M421.5,48.4L410.1,120c-6.7,28.5-13.2,69.9-9.8,119.5c3.6,51.8,16.5,93.3,27.6,121.1"/>
<line class="st0" x1="203.6" y1="13.5" x2="421.5" y2="48.4"/>
<line class="st0" x1="492.2" y1="73.6" x2="421.5" y2="48.4"/>
<line class="st0" x1="182.1" y1="71.7" x2="167.1" y2="69.6"/>
<line class="st0" x1="250" y1="82.5" x2="230.3" y2="79"/>
<line class="st0" x1="203.6" y1="74.8" x2="188" y2="72.5"/>
<line class="st0" x1="225.6" y1="78.5" x2="208.7" y2="75.7"/>
<line class="st0" x1="275.2" y1="86.6" x2="255" y2="83.6"/>
<line class="st0" x1="294" y1="89.5" x2="280" y2="87"/>
<line class="st0" x1="335.3" y1="96.9" x2="322.6" y2="94.5"/>
<line class="st0" x1="318.2" y1="93.4" x2="299.5" y2="91.3"/>
<line class="st0" x1="354.1" y1="99.4" x2="341.3" y2="97.5"/>
<line class="st0" x1="377.7" y1="102.9" x2="359.4" y2="100.5"/>
<line class="st0" x1="382" y1="104" x2="404.7" y2="108.7"/>
<text transform="matrix(1 0 0 1 199.561 440.2842)" class="st1 st2">SNTS</text>
</svg>
