<?xml version="1.0" encoding="utf-8"?>
<!-- Generator: Adobe Illustrator 21.1.0, SVG Export Plug-In . SVG Version: 6.00 Build 0)  -->
<svg version="1.1" id="Layer_4" xmlns="http://www.w3.org/2000/svg" xmlns:xlink="http://www.w3.org/1999/xlink" x="0px" y="0px"
	 viewBox="0 0 500 500" style="enable-background:new 0 0 500 500;" xml:space="preserve">
<style type="text/css">
	.st0{fill:none;stroke:#000000;stroke-miterlimit:10;}
	.st1{font-family:'MyriadPro-Regular';}
	.st2{font-size:21px;}
</style>
<line class="st0" x1="52.4" y1="101.3" x2="441.8" y2="103.7"/>
<line class="st0" x1="442.7" y1="237" x2="441.8" y2="103.7"/>
<line class="st0" x1="53.2" y1="236.2" x2="442.7" y2="237"/>
<line class="st0" x1="52.4" y1="218.3" x2="80.9" y2="216.7"/>
<line class="st0" x1="99.6" y1="217.5" x2="132.1" y2="217.5"/>
<line class="st0" x1="150.8" y1="217.5" x2="180.9" y2="217.5"/>
<line class="st0" x1="197.9" y1="217.5" x2="229.6" y2="217.5"/>
<line class="st0" x1="247.9" y1="217.5" x2="275.2" y2="217.5"/>
<line class="st0" x1="293.1" y1="217.5" x2="324.8" y2="217.5"/>
<line class="st0" x1="343.5" y1="217.5" x2="378.4" y2="217.5"/>
<line class="st0" x1="394.7" y1="217.5" x2="422.3" y2="217.5"/>
<line class="st0" x1="422.3" y1="191.5" x2="422.3" y2="208.6"/>
<line class="st0" x1="422.3" y1="150" x2="422.3" y2="170.4"/>
<line class="st0" x1="422.3" y1="121.6" x2="422.3" y2="134.6"/>
<line class="st0" x1="394.7" y1="121.6" x2="422.3" y2="121.6"/>
<line class="st0" x1="343.5" y1="121.6" x2="378.4" y2="121.6"/>
<line class="st0" x1="293.1" y1="121.6" x2="324.8" y2="121.6"/>
<line class="st0" x1="247.9" y1="121.6" x2="275.2" y2="121.6"/>
<line class="st0" x1="197.9" y1="121.6" x2="234.5" y2="121.6"/>
<line class="st0" x1="150.8" y1="121.6" x2="176.8" y2="121.6"/>
<line class="st0" x1="99.6" y1="121.6" x2="132.1" y2="121.6"/>
<line class="st0" x1="52.4" y1="121.6" x2="80" y2="121.6"/>
<text transform="matrix(1 0 0 1 207.6912 351.6667)" class="st1 st2">Square End</text>
</svg>
