<?xml version="1.0" encoding="utf-8"?>
<!-- Generator: Adobe Illustrator 21.1.0, SVG Export Plug-In . SVG Version: 6.00 Build 0)  -->
<svg version="1.1" id="Layer_4" xmlns="http://www.w3.org/2000/svg" xmlns:xlink="http://www.w3.org/1999/xlink" x="0px" y="0px"
	 viewBox="0 0 500 500" style="enable-background:new 0 0 500 500;" xml:space="preserve">
<style type="text/css">
	.st0{fill:none;stroke:#000000;stroke-miterlimit:10;}
	.st1{font-family:'MyriadPro-Regular';}
	.st2{font-size:21px;}
</style>
<line class="st0" x1="37.1" y1="47.6" x2="470.6" y2="49.1"/>
<line class="st0" x1="475.1" y1="218.6" x2="470.6" y2="49.1"/>
<line class="st0" x1="377.6" y1="260.6" x2="475.1" y2="218.6"/>
<line class="st0" x1="260.6" y1="220.1" x2="377.6" y2="260.6"/>
<line class="st0" x1="146.6" y1="263.6" x2="260.6" y2="220.1"/>
<line class="st0" x1="37.1" y1="223.1" x2="146.6" y2="263.6"/>
<line class="st0" x1="37.1" y1="47.6" x2="37.1" y2="223.1"/>
<line class="st0" x1="37.1" y1="73.1" x2="69" y2="73.8"/>
<line class="st0" x1="81.9" y1="74.6" x2="121.6" y2="74.6"/>
<line class="st0" x1="145.5" y1="76.1" x2="183" y2="76.1"/>
<line class="st0" x1="200.5" y1="74.6" x2="250" y2="74.6"/>
<line class="st0" x1="271.7" y1="73.8" x2="301.1" y2="73.8"/>
<line class="st0" x1="358.1" y1="73.8" x2="319.1" y2="73.8"/>
<line class="st0" x1="376.1" y1="73.8" x2="426.3" y2="73.8"/>
<line class="st0" x1="471.2" y1="73.8" x2="440.6" y2="73.8"/>
<line class="st0" x1="455.9" y1="49" x2="455.9" y2="91.1"/>
<line class="st0" x1="455.9" y1="109.1" x2="455.9" y2="158.6"/>
<line class="st0" x1="455.9" y1="179.6" x2="455.9" y2="223.1"/>
<line class="st0" x1="52.1" y1="91.1" x2="52.1" y2="49"/>
<line class="st0" x1="52.1" y1="158.6" x2="52.1" y2="109.1"/>
<line class="st0" x1="52.1" y1="214.1" x2="52.1" y2="179.6"/>
<line class="st0" x1="79.1" y1="223.1" x2="52.1" y2="214.1"/>
<line class="st0" x1="129.7" y1="243.3" x2="91.8" y2="228.7"/>
<line class="st0" x1="146.1" y1="247.4" x2="261.1" y2="202.4"/>
<line class="st0" x1="376.7" y1="244.9" x2="260.9" y2="202.7"/>
<text transform="matrix(1 0 0 1 215.5921 361.0849)" class="st1 st2">Wave Flap</text>
<line class="st0" x1="389" y1="241.8" x2="419" y2="229.7"/>
<line class="st0" x1="436.3" y1="223.1" x2="474.6" y2="201.3"/>
<line class="st0" x1="37.1" y1="205" x2="52.1" y2="214.1"/>
</svg>
